<svg xmlns="http://www.w3.org/2000/svg" viewBox="0 0 32 32">
  <defs>
    <linearGradient id="grad" x1="0%" y1="0%" x2="100%" y2="100%">
      <stop offset="0%" style="stop-color:#7A9B84;stop-opacity:1" />
      <stop offset="100%" style="stop-color:#5a7c59;stop-opacity:1" />
    </linearGradient>
  </defs>

  <!-- Background circle -->
  <circle cx="16" cy="16" r="15" fill="url(#grad)"/>

  <!-- Baby bottle icon -->
  <g fill="#ffffff">
    <!-- Bottle body -->
    <rect x="12" y="10" width="8" height="14" rx="2" ry="2"/>
    <!-- Bottle neck -->
    <rect x="13.5" y="8" width="5" height="3" rx="1" ry="1"/>
    <!-- Bottle nipple -->
    <ellipse cx="16" cy="7" rx="2.5" ry="1.5"/>

    <!-- Heart decoration on bottle -->
    <path d="M 16 17
             C 16 17, 14.5 15, 13.5 15
             C 12.5 15, 12 15.5, 12 16.5
             C 12 17.5, 13 18.5, 16 21
             C 19 18.5, 20 17.5, 20 16.5
             C 20 15.5, 19.5 15, 18.5 15
             C 17.5 15, 16 17, 16 17 Z"
          fill="#E5D4C1"
          opacity="0.9"/>
  </g>
</svg>
